# xmcd CD database file
#
# Track frame offsets:
#	150
#	41693
#	57600
#	101018
#	144668
#	176080
#	199000
#	231760
#	253318
#
# Disc length: 3821 seconds
#
# Revision: 7
# Processed by: cddbd v1.5.2PL0 Copyright (c) Steve Scherf et al.
# Submitted via: CDex 1.51
#
DISCID=880eeb09
DTITLE=Wes Montgomery - Full House
DYEAR=1962
DGENRE=Jazz
TTITLE0=Full House
TTITLE1=I've Grown Accustomed To Her Face
TTITLE2=Blue 'N' Boogie
TTITLE3=Cariba
TTITLE4=Come Rain Or Come Shine (Take 2)
TTITLE5=S.O.S. (Take 3)
TTITLE6=Come Rain Or Come Shine (Take 1)
TTITLE7=S.O.S. (Take 2)
TTITLE8=Born To Be Blue
EXTD=Wes Montgomery (g]\nJohnny Griffin (ts]\nWynton Kelly (p]\nPaul Chambers (b]\nJimmy Cobb (ds]\nLive at the "Tsubo", Berkeley, Ca., June 25, 1962 YEAR: 1962
EXTT0=
EXTT1=
EXTT2=
EXTT3=
EXTT4=
EXTT5=
EXTT6=
EXTT7=
EXTT8=
PLAYORDER=
